<svg width="1920" height="903" viewBox="0 0 1920 903" fill="none" xmlns="http://www.w3.org/2000/svg">
<path opacity="0.3" d="M7.5 -36L-12.5 635L-20.4991 770.482C-21.8558 793.46 -3.58702 812.84 19.4313 812.84H125.243C130.802 812.84 136.3 811.681 141.387 809.437L330.351 726.082C335.437 723.838 340.936 722.679 346.495 722.679H645.275C654.541 722.679 663.519 725.896 670.677 731.78L762.135 806.966C766.836 810.831 772.357 813.572 778.277 814.981L1143.58 901.913C1146.62 902.635 1149.73 903 1152.84 903H1347.56H1586.59C1591.81 903 1596.98 901.978 1601.81 899.992L1795.7 820.229C1807.05 815.563 1819.9 816.359 1830.58 822.388L1920.69 873.25C1941.94 885.243 1968.88 875.584 1977.67 852.824L2035.31 703.534C2037.09 698.938 2038 694.053 2038 689.126V551.191C2038 531.899 2022.36 516.259 2003.07 516.259C1984.81 516.259 1969.63 502.193 1968.24 483.985L1929 -30.5L7.5 -36Z" fill="#2A8086"/>
</svg>
